<?xml version="1.0" standalone="no"?><!-- Generator: Gravit.io --><svg xmlns="http://www.w3.org/2000/svg" xmlns:xlink="http://www.w3.org/1999/xlink" style="isolation:isolate" viewBox="0 0 1366 768" width="1366" height="768"><defs><clipPath id="_clipPath_YTL348lodLUPrI7z2cvumC6MkJD6nA2A"><rect width="1366" height="768"/></clipPath></defs><g clip-path="url(#_clipPath_YTL348lodLUPrI7z2cvumC6MkJD6nA2A)"><rect width="1366" height="768" style="fill:rgb(31,37,42)"/><g id="editor_atom"><path d=" M 419.048 260.393 C 420.711 251.879 419.781 245.417 415.849 242.85 C 414.539 241.994 412.967 241.62 411.199 241.687 C 401.649 242.051 386.24 255.274 373.651 274.769 C 358.73 297.874 353.427 321.029 361.815 326.507 C 365.797 329.107 372.142 327.264 379.31 322.127" fill-rule="evenodd" fill="none" vector-effect="non-scaling-stroke" stroke-width="3" stroke="rgb(86,179,180)" stroke-linejoin="miter" stroke-linecap="round" stroke-miterlimit="4"/><path d=" M 427.055 297.679 C 434.202 294.905 438.597 291.109 438.825 286.748 C 439.354 276.663 417.415 267.326 389.804 265.878 C 387.265 265.741 384.723 265.675 382.18 265.68 C 358.11 265.76 339.323 272.366 338.844 281.505 C 338.616 285.858 342.58 290.078 349.374 293.58" fill-rule="evenodd" fill="none" vector-effect="non-scaling-stroke" stroke-width="3" stroke="rgb(86,179,180)" stroke-linejoin="miter" stroke-linecap="round" stroke-miterlimit="4"/><path d=" M 381.997 245.678 C 377.1 241.61 372.507 239.425 368.817 239.702 C 367.864 239.765 366.934 240.019 366.081 240.449 C 357.074 245.044 359.951 268.806 372.522 293.504 C 385.093 318.204 402.585 334.498 411.592 329.904 C 420.255 325.485 417.917 303.344 406.544 279.687" fill-rule="evenodd" fill="none" vector-effect="non-scaling-stroke" stroke-width="3" stroke="rgb(86,179,180)" stroke-linejoin="miter" stroke-linecap="round" stroke-miterlimit="4"/><path d=" M 396.835 285.679 C 396.835 290.097 393.253 293.679 388.835 293.679 C 384.417 293.679 380.835 290.097 380.835 285.679 C 380.835 281.261 384.417 277.679 388.835 277.679 C 393.253 277.679 396.835 281.261 396.835 285.679 Z " fill="rgb(86,179,180)"/></g><g id="editor_emacs"><path d=" M 694.267 285.179 C 694.267 310.86 673.672 331.679 648.267 331.679 C 622.862 331.679 602.267 310.86 602.267 285.179 C 602.267 259.498 622.862 238.679 648.267 238.679 C 673.672 238.679 694.267 259.498 694.267 285.179 Z " fill="rgb(86,179,180)"/><path d=" M 634.789 311.612 C 634.789 311.612 637.878 311.83 641.851 311.481 C 643.461 311.339 649.571 310.741 654.139 309.741 C 654.139 309.741 659.709 308.554 662.689 307.459 C 665.806 306.313 667.503 305.341 668.267 303.963 C 668.233 303.681 668.502 302.68 667.064 302.079 C 663.388 300.542 659.124 300.819 650.689 300.641 C 641.334 300.321 638.222 298.76 636.564 297.502 C 634.974 296.227 635.774 292.698 642.585 289.589 C 646.017 287.934 659.467 284.879 659.467 284.879 C 654.937 282.647 646.49 278.723 644.754 277.875 C 643.231 277.132 640.794 276.013 640.266 274.659 C 639.667 273.359 641.68 272.239 642.806 271.919 C 646.427 270.877 651.54 270.229 656.194 270.157 C 658.534 270.12 658.913 269.97 658.913 269.97 C 662.141 269.436 664.265 267.235 663.38 263.748 C 662.585 260.188 658.394 258.098 654.41 258.822 C 650.66 259.503 641.619 262.122 641.619 262.122 C 652.794 262.025 654.664 262.212 655.499 263.376 C 655.993 264.063 655.276 265.006 652.295 265.492 C 649.051 266.02 642.305 266.656 642.305 266.656 C 635.835 267.039 631.278 267.065 629.911 269.95 C 629.018 271.835 630.863 273.502 631.672 274.545 C 635.09 278.335 640.027 280.379 643.205 281.885 C 644.401 282.451 647.909 283.52 647.909 283.52 C 637.599 282.955 630.162 286.11 625.799 289.745 C 620.866 294.295 623.049 299.719 633.157 303.058 C 639.127 305.031 642.089 305.958 650.995 305.158 C 656.241 304.877 657.068 305.045 657.12 305.474 C 657.193 306.078 651.293 307.579 649.683 308.042 C 645.585 309.221 634.843 311.6 634.789 311.612 L 634.789 311.612 Z " fill-rule="evenodd" fill="rgb(0,0,0)"/></g><path d=" M 857.7 261.713 C 859.893 247.893 895.774 238.638 908.293 238.658 C 920.812 238.678 951.82 237.068 956.179 252.308 C 960.538 267.548 957.976 329.544 915.053 331.673 C 872.13 333.803 859.92 285.176 857.7 261.713 Z  M 904.813 258.82 C 904.841 262.3 909.405 263.1 911.03 263.15 C 912.112 263.185 914.463 262.58 918.08 261.338 C 913.584 260.458 911.336 259.123 911.336 257.332 C 911.336 254.645 914.792 253.476 914.778 251.751 C 914.765 250.026 911.05 246.599 907.066 247.315 C 909.392 249.102 911.336 249.026 911.336 250.868 C 911.336 252.71 904.786 255.34 904.813 258.82 Z  M 892.03 268.964 C 890.895 268.872 890.201 268.952 889.95 269.202 C 889.697 269.452 889.602 270.154 889.663 271.31 C 892.994 290.773 895.043 301.52 895.806 303.548 C 896.57 305.578 898.512 306.568 901.632 306.521 L 918.973 306.521 C 921.848 306.521 923.027 306.762 923.974 305.778 C 925.422 304.273 925.7 301.233 925.7 300.505 C 925.7 299.702 925.579 299.257 925.337 299.172 C 912.774 299.172 906.07 299.138 905.225 299.072 C 904.379 299.005 903.866 298.694 903.685 298.139 C 903.33 296.005 903.153 294.553 903.153 293.782 C 903.153 293.012 903.491 292.63 904.169 292.639 C 915.829 292.432 921.922 292.293 922.451 292.222 C 922.98 292.151 923.324 291.862 923.483 291.358 C 923.763 289.346 923.926 287.978 923.974 287.25 C 924.023 286.523 923.514 286.013 922.451 285.72 C 910.203 285.72 903.771 285.71 903.153 285.689 C 902.535 285.669 902.162 285.206 902.033 284.3 C 901.821 281.929 901.688 280.4 901.633 279.716 C 901.576 279.031 901.966 278.606 902.802 278.442 C 918.542 278.234 927.056 278.129 928.342 278.128 C 929.629 278.127 930.292 277.648 930.332 276.694 C 930.736 274.284 931.09 272.422 931.395 271.11 C 931.701 269.798 931.155 269.082 929.758 268.964 L 892.03 268.964 Z " fill-rule="evenodd" fill="rgb(86,179,180)"/><path d=" M 425.269 374.29 L 428.321 374.29 C 430.065 374.736 431.809 375.851 432.681 377.636 C 433.335 378.75 433.335 380.313 433.335 381.65 L 433.335 431.838 C 433.117 440.76 433.335 449.459 433.117 458.158 C 432.681 460.837 430.283 463.29 427.449 463.29 L 350.712 463.29 C 347.878 463.29 345.262 461.06 344.608 458.16 C 344.171 455.706 344.39 453.475 344.39 451.022 L 344.39 382.32 C 344.39 380.536 344.39 378.305 345.698 376.744 C 347.005 375.405 348.968 374.29 351.148 374.29 L 425.269 374.29 Z  M 364.335 401.591 L 364.335 418.29 L 385.591 426.36 L 364.335 432.526 L 364.335 451.29 L 414.335 435.232 L 414.335 418.002 L 393.17 409.778 L 414.335 403.508 L 414.335 385.29 L 364.335 401.591 Z " fill="rgb(86,179,180)"/><g id="editor_vim"><path d=" M 603.894 377.043 L 636.16 377.043 L 638.126 379.009 L 638.126 385.04 L 636.566 386.938 L 633.042 386.938 L 633.042 416.893 L 663.41 386.938 L 658.394 386.938 L 656.632 385.04 L 656.632 378.67 L 658.258 377.178 L 690.931 377.178 L 692.558 378.804 L 692.558 384.768 L 618.671 460.538 L 610.266 460.538 L 607.833 459.133 L 607.833 386.667 L 603.758 386.667 L 602.267 385.176 L 602.267 378.806 L 603.894 377.043 Z " fill-rule="evenodd" fill="rgb(86,179,180)"/><path d=" M 646.808 427.603 C 646.753 427.615 646.701 427.641 646.658 427.679 L 645.238 428.904 C 645.196 428.943 645.164 428.992 645.146 429.047 L 643.726 433.042 C 643.684 433.162 643.713 433.295 643.802 433.386 L 644.887 434.476 C 644.95 434.537 645.034 434.571 645.121 434.569 L 649.506 434.569 C 649.593 434.57 649.678 434.537 649.74 434.477 L 650.884 433.319 C 650.924 433.279 650.952 433.23 650.967 433.176 L 652.187 428.971 C 652.221 428.855 652.189 428.73 652.103 428.644 L 651.16 427.695 C 651.098 427.635 651.013 427.601 650.926 427.603 L 646.876 427.603 C 646.854 427.601 646.831 427.601 646.808 427.603 L 646.808 427.603 Z  M 638.774 438.866 C 638.651 438.893 638.554 438.988 638.524 439.11 L 637.981 441.275 C 637.957 441.373 637.979 441.477 638.041 441.557 C 638.103 441.637 638.197 441.684 638.298 441.686 L 640.878 441.686 L 634.481 460.041 C 634.448 460.141 634.465 460.251 634.526 460.338 C 634.587 460.424 634.686 460.476 634.791 460.478 L 644.102 460.478 C 644.247 460.48 644.375 460.388 644.42 460.251 L 645.03 458.279 C 645.061 458.178 645.042 458.069 644.979 457.985 C 644.916 457.901 644.817 457.851 644.712 457.851 L 642.607 457.851 L 648.938 439.303 C 648.971 439.203 648.955 439.093 648.894 439.007 C 648.833 438.92 648.735 438.868 648.629 438.866 L 638.841 438.866 C 638.819 438.864 638.797 438.864 638.774 438.866 L 638.774 438.866 Z  M 668.406 438.933 C 668.334 438.948 668.27 438.987 668.222 439.043 L 666.284 441.241 L 663.203 441.241 L 661.148 439.101 C 661.087 439.038 661.003 439.002 660.914 439.001 L 653.556 439.001 C 653.418 439.002 653.294 439.089 653.247 439.219 L 652.571 441.249 C 652.538 441.349 652.555 441.459 652.616 441.545 C 652.677 441.631 652.775 441.684 652.88 441.686 L 654.851 441.686 L 648.721 459.84 C 648.689 459.94 648.705 460.05 648.766 460.136 C 648.827 460.222 648.925 460.274 649.03 460.276 L 656.864 460.276 C 657.003 460.275 657.126 460.188 657.173 460.058 L 657.774 458.288 C 657.807 458.188 657.791 458.078 657.73 457.992 C 657.669 457.905 657.571 457.853 657.465 457.851 L 656.095 457.851 L 660.004 445.488 L 667.078 445.488 L 662.618 459.848 C 662.588 459.948 662.607 460.057 662.669 460.142 C 662.732 460.226 662.83 460.276 662.935 460.276 L 670.494 460.276 C 670.625 460.274 670.743 460.196 670.794 460.075 L 671.471 458.447 C 671.511 458.346 671.499 458.233 671.439 458.142 C 671.379 458.052 671.28 457.996 671.171 457.993 L 669.8 457.993 L 673.775 445.421 L 680.506 445.421 L 675.981 459.848 C 675.951 459.948 675.97 460.057 676.032 460.142 C 676.095 460.226 676.193 460.276 676.298 460.276 L 684.6 460.276 C 684.737 460.277 684.86 460.193 684.909 460.066 L 685.585 458.296 C 685.622 458.195 685.607 458.082 685.545 457.994 C 685.484 457.906 685.384 457.852 685.276 457.851 L 683.631 457.851 L 688.634 441.527 C 688.668 441.424 688.649 441.311 688.584 441.225 L 687.03 439.126 C 686.966 439.044 686.867 438.997 686.763 439 L 680.825 439 C 680.734 438.999 680.647 439.035 680.583 439.101 L 678.712 441.166 L 675.438 441.166 L 673.5 439.034 C 673.437 438.969 673.349 438.932 673.258 438.934 L 668.473 438.934 C 668.451 438.932 668.429 438.932 668.406 438.934 L 668.406 438.933 Z " fill="rgb(86,179,180)" vector-effect="non-scaling-stroke" stroke-width="3" stroke="rgb(86,179,180)" stroke-linejoin="miter" stroke-linecap="butt" stroke-miterlimit="4"/></g><path d=" M 957.69 377.145 L 957.7 460.471 L 933.893 469.985 L 892.202 429.522 L 867.178 448.57 L 857.7 443.816 L 857.71 393.82 L 867.232 389.03 L 892.277 408.095 L 933.865 367.595 L 957.691 377.145 L 957.69 377.145 Z  M 931.427 401.024 L 907.629 418.814 L 931.437 436.744 L 931.427 401.024 L 931.427 401.024 Z  M 869.486 408.095 L 869.5 429.493 L 881.39 418.721 L 869.485 408.095 L 869.486 408.095 Z " fill="rgb(86,179,180)"/><g id="editor_vscode"><path d="M 464.303 517.079 L 507.745 510.198 C 514.832 509.076 521.496 513.918 522.619 521.005 L 531.789 578.901 C 532.911 585.988 528.069 592.652 520.982 593.775 L 477.54 600.655 C 470.453 601.778 463.789 596.935 462.666 589.849 L 453.496 531.953 C 452.374 524.866 457.216 518.201 464.303 517.079 Z" style="fill:none;stroke:#56B3B4;stroke-width:4.000000000000001;"/><path d=" M 467.413 564.443 L 476.221 553.39 L 464.593 544.36 L 468.01 541.686 L 479.27 548.167 L 494.542 528.191 L 505.416 531.381 L 510.935 564.443 L 501.33 571.281 L 481.652 556.8 L 472.112 565.904 L 467.413 564.443 L 467.413 564.443 Z  M 486.521 551.395 L 499.099 558.105 L 495.989 541.468 L 486.521 551.395 Z " fill-rule="evenodd" fill="rgb(86,179,180)"/><path d=" M 512.775 514.37 C 513.03 514.37 519.783 516.04 533.035 519.382 L 542.642 578.104 L 525.002 589.98 L 466.219 579.91 L 522.855 578.941 C 515.88 535.894 512.52 514.371 512.775 514.371 L 512.775 514.37 Z " fill-rule="evenodd" fill="rgb(86,179,180)"/></g><g id="editor_webstorm"><path d=" M 812.976 586.934 L 814.085 586.934 L 814.085 582.558 L 831.955 570.643 L 821.733 550.601 L 831.955 539.118 L 819.153 506.523 L 795.11 504.89 L 791.726 508.75 L 787.588 506.523 L 772.329 514.321 L 756.773 504.89 L 732 515.714 L 744.987 596.633 L 795.109 605.963 L 801.063 605.963 L 805.23 587.298 L 750.383 587.298 L 750.383 523.336 L 812.976 523.336 L 812.976 586.934 Z " fill-rule="evenodd" fill="rgb(86,179,180)"/><path d=" M 754.682 532.077 L 760.964 532.077 L 764.736 546.484 L 769.24 532.077 L 773.728 532.077 L 778.014 546.484 L 782.02 532.077 L 788.177 532.077 L 780.827 558.515 L 775.86 558.515 L 772.08 543.715 L 771.43 543.715 L 767.472 558.515 L 762.26 558.515 C 756.89 540.889 754.365 532.077 754.682 532.077 Z  M 756.131 575.491 L 780.157 575.491 L 780.157 579.39 L 756.131 579.39 L 756.131 575.491 Z  M 787.533 554.62 L 790.235 550.761 C 794.042 552.753 796.655 553.756 798.075 553.773 C 800.203 553.797 802.242 553.12 802.243 551.166 C 802.244 549.864 799.872 548.538 795.126 547.189 C 790.471 546.267 788.148 543.653 788.159 539.349 C 788.174 532.893 794.83 531.432 797.015 531.557 C 799.2 531.682 805.845 533.472 806.733 534.987 C 806.112 535.812 805.043 537.266 803.529 539.349 C 801.414 537.22 799.509 536.179 797.814 536.224 C 795.271 536.293 793.616 537.556 793.511 539.349 C 793.406 541.142 797.203 542.066 800.809 543.085 C 804.415 544.103 808.442 547.713 808.073 551.166 C 807.703 554.62 804.835 559.286 798.577 559.109 C 794.405 558.992 790.723 557.495 787.533 554.619 L 787.533 554.62 Z " fill-rule="evenodd" fill="rgb(86,179,180)"/></g><g transform="matrix(1,0,0,1,278,159.037)"><text transform="matrix(1,0,0,1,0,33.521)" style="font-family:&quot;Droid Sans&quot;;font-weight:400;font-size:36px;font-style:normal;fill:#56b3b4;stroke:none;">Editor Support</text></g><g transform="matrix(1,0,0,1,455,274.636)"><text transform="matrix(1,0,0,1,0,16.761)" style="font-family:&quot;Droid Sans&quot;;font-weight:400;font-size:18px;font-style:normal;fill:#ffffff;stroke:none;">Atom</text></g><g transform="matrix(1,0,0,1,455,408.248)"><text transform="matrix(1,0,0,1,0,16.761)" style="font-family:&quot;Droid Sans&quot;;font-weight:400;font-size:18px;font-style:normal;fill:#ffffff;stroke:none;">Sublime Text</text></g><g transform="matrix(1,0,0,1,721.5,274.636)"><text transform="matrix(1,0,0,1,0,16.761)" style="font-family:&quot;Droid Sans&quot;;font-weight:400;font-size:18px;font-style:normal;fill:#ffffff;stroke:none;">Emacs</text></g><g transform="matrix(1,0,0,1,721.5,408.248)"><text transform="matrix(1,0,0,1,0,16.761)" style="font-family:&quot;Droid Sans&quot;;font-weight:400;font-size:18px;font-style:normal;fill:#ffffff;stroke:none;">Vim</text></g><g transform="matrix(1,0,0,1,986,274.636)"><text transform="matrix(1,0,0,1,0,16.761)" style="font-family:&quot;Droid Sans&quot;;font-weight:400;font-size:18px;font-style:normal;fill:#ffffff;stroke:none;">Espresso</text></g><g transform="matrix(1,0,0,1,986,408.248)"><text transform="matrix(1,0,0,1,0,16.761)" style="font-family:&quot;Droid Sans&quot;;font-weight:400;font-size:18px;font-style:normal;fill:#ffffff;stroke:none;">VisualStudio</text></g><g transform="matrix(1,0,0,1,562,544.884)"><text transform="matrix(1,0,0,1,0,16.761)" style="font-family:&quot;Droid Sans&quot;;font-weight:400;font-size:18px;font-style:normal;fill:#ffffff;stroke:none;">VS Code</text></g><g transform="matrix(1,0,0,1,861,544.884)"><text transform="matrix(1,0,0,1,0,16.761)" style="font-family:&quot;Droid Sans&quot;;font-weight:400;font-size:18px;font-style:normal;fill:#ffffff;stroke:none;">WebStorm</text></g></g></svg>